<svg xmlns="http://www.w3.org/2000/svg" xmlns:xlink="http://www.w3.org/1999/xlink" width="790" zoomAndPan="magnify" viewBox="0 0 592.5 852.749969" height="1137" preserveAspectRatio="xMidYMid meet" version="1.0"><defs><clipPath id="b5acaa1505"><path d="M 0 77.863281 L 592 77.863281 L 592 335.113281 L 0 335.113281 Z M 0 77.863281 " clip-rule="nonzero"/></clipPath><clipPath id="3b2ede1a9f"><path d="M 92.367188 313.9375 L 500.367188 313.9375 L 500.367188 721.9375 L 92.367188 721.9375 Z M 92.367188 313.9375 " clip-rule="nonzero"/></clipPath></defs><path fill="#2a2c39" d="M 107.519531 257.246094 L 3.835938 257.246094 L 56.949219 165.320312 L 4.347656 165.320312 L 4.347656 137.191406 L 108.03125 137.191406 L 54.792969 228.988281 L 107.527344 228.988281 L 107.527344 257.246094 Z M 107.519531 257.246094 " fill-opacity="1" fill-rule="nonzero"/><path fill="#2a2c39" d="M 200.441406 248.921875 C 200.441406 248.648438 200.140625 248.480469 199.910156 248.628906 C 190.597656 254.296875 180.160156 257.246094 168.496094 257.246094 C 152.015625 257.246094 137.960938 251.367188 126.207031 239.617188 C 114.449219 227.867188 108.445312 213.6875 108.445312 197.207031 C 108.445312 180.59375 114.449219 166.546875 126.207031 154.921875 C 137.960938 143.039062 152.015625 137.15625 168.496094 137.15625 C 185.113281 137.15625 199.292969 143.039062 211.042969 154.921875 C 222.792969 166.546875 228.675781 180.601562 228.675781 197.207031 L 228.675781 256.894531 C 228.675781 257.089844 228.515625 257.246094 228.320312 257.246094 L 200.800781 257.246094 C 200.609375 257.246094 200.449219 257.089844 200.449219 256.894531 L 200.449219 248.921875 Z M 146.265625 174.96875 C 140.265625 181.105469 137.191406 188.519531 137.191406 197.207031 C 137.191406 205.761719 140.265625 213.167969 146.265625 219.4375 C 152.527344 225.570312 159.933594 228.636719 168.496094 228.636719 C 177.183594 228.636719 184.726562 225.570312 190.851562 219.4375 C 196.40625 213.769531 199.441406 207.15625 199.972656 199.597656 C 200.660156 189.683594 196.574219 179.816406 189.058594 173.300781 C 183.277344 168.285156 176.355469 165.777344 168.496094 165.777344 C 159.941406 165.769531 152.527344 168.84375 146.265625 174.96875 Z M 146.265625 174.96875 " fill-opacity="1" fill-rule="nonzero"/><path fill="#1c1f2a" d="M 207.007812 298.492188 C 207.007812 300.796875 207.855469 301.644531 210.363281 301.644531 L 211.617188 301.644531 C 212.542969 301.644531 213.074219 302.332031 213.074219 303.101562 C 213.074219 303.867188 212.542969 304.59375 211.617188 304.59375 L 210.363281 304.59375 C 205.992188 304.59375 203.652344 302.730469 203.652344 298.492188 L 203.652344 277.667969 C 203.652344 276.976562 204.546875 276.492188 205.3125 276.492188 C 206.160156 276.492188 207.007812 276.976562 207.007812 277.667969 L 207.007812 285.425781 L 212.101562 285.425781 C 212.710938 285.425781 213.109375 286.070312 213.109375 286.757812 C 213.109375 287.449219 212.703125 288.058594 212.101562 288.058594 L 207.007812 288.058594 Z M 207.007812 298.492188 " fill-opacity="1" fill-rule="nonzero"/><path fill="#1c1f2a" d="M 216.101562 297.148438 L 216.101562 286.636719 C 216.101562 286.027344 216.835938 285.425781 217.796875 285.425781 C 218.644531 285.425781 219.457031 286.035156 219.457031 286.636719 L 219.457031 297.148438 C 219.457031 299.535156 221.523438 301.882812 224.109375 301.882812 C 226.660156 301.882812 228.71875 299.578125 228.71875 297.148438 L 228.71875 286.601562 C 228.71875 285.992188 229.488281 285.425781 230.414062 285.425781 C 231.382812 285.425781 232.074219 285.992188 232.074219 286.601562 L 232.074219 297.148438 C 232.074219 301.273438 228.4375 304.910156 224.109375 304.910156 C 219.703125 304.917969 216.101562 301.238281 216.101562 297.148438 Z M 216.101562 297.148438 " fill-opacity="1" fill-rule="nonzero"/><path fill="#1c1f2a" d="M 259.9375 275.035156 L 259.9375 303.375 C 259.9375 303.984375 259.246094 304.582031 258.277344 304.582031 C 257.429688 304.582031 256.742188 303.972656 256.742188 303.375 L 256.742188 301.757812 C 255.894531 303.417969 253.710938 304.910156 251.160156 304.910156 C 247.355469 304.910156 244.042969 301.148438 244.042969 297.070312 L 244.042969 292.949219 C 244.042969 288.703125 247.320312 285.1875 251.285156 285.1875 C 253.871094 285.1875 255.691406 286.679688 256.582031 288.261719 L 256.582031 275.035156 C 256.582031 274.347656 257.351562 273.863281 258.277344 273.863281 C 259.246094 273.871094 259.9375 274.355469 259.9375 275.035156 Z M 247.398438 297.070312 C 247.398438 299.5 249.5 301.882812 251.964844 301.882812 C 254.59375 301.882812 256.574219 299.25 256.574219 298.164062 L 256.574219 292.949219 C 256.574219 290 254.269531 288.214844 252.007812 288.214844 C 249.457031 288.214844 247.398438 290.554688 247.398438 292.949219 Z M 247.398438 297.070312 " fill-opacity="1" fill-rule="nonzero"/><path fill="#1c1f2a" d="M 268.472656 278.230469 C 268.472656 279.246094 267.546875 280.171875 266.40625 280.171875 C 265.234375 280.171875 264.308594 279.246094 264.308594 278.230469 C 264.308594 277.226562 265.234375 276.332031 266.40625 276.332031 C 267.539062 276.332031 268.472656 277.226562 268.472656 278.230469 Z M 268.101562 286.601562 L 268.101562 303.382812 C 268.101562 303.992188 267.335938 304.59375 266.40625 304.59375 C 265.480469 304.59375 264.75 303.984375 264.75 303.382812 L 264.75 286.601562 C 264.75 285.910156 265.472656 285.425781 266.40625 285.425781 C 267.335938 285.425781 268.101562 285.910156 268.101562 286.601562 Z M 268.101562 286.601562 " fill-opacity="1" fill-rule="nonzero"/><path fill="#1c1f2a" d="M 276.234375 303.382812 C 276.234375 303.992188 275.421875 304.59375 274.539062 304.59375 C 273.566406 304.59375 272.878906 303.984375 272.878906 303.382812 L 272.878906 286.601562 C 272.878906 285.910156 273.566406 285.425781 274.539062 285.425781 C 275.351562 285.425781 276.074219 285.910156 276.074219 286.601562 L 276.074219 288.261719 C 276.886719 286.679688 278.785156 285.1875 281.496094 285.1875 C 285.335938 285.1875 288.613281 288.703125 288.613281 292.949219 L 288.613281 303.382812 C 288.613281 304.195312 287.765625 304.59375 286.917969 304.59375 C 286.105469 304.59375 285.257812 304.1875 285.257812 303.382812 L 285.257812 292.949219 C 285.257812 290.5625 283.15625 288.214844 280.648438 288.214844 C 278.46875 288.214844 276.242188 289.992188 276.242188 292.949219 L 276.242188 303.382812 Z M 276.234375 303.382812 " fill-opacity="1" fill-rule="nonzero"/><path fill="#1c1f2a" d="M 308.300781 292.628906 C 308.300781 295.859375 306.515625 295.984375 304.699219 295.984375 L 295.84375 295.984375 L 295.84375 297.195312 C 295.84375 300.1875 298.226562 302.085938 301.582031 302.085938 C 304.609375 302.085938 305.464844 300.503906 306.472656 300.503906 C 307.285156 300.503906 307.851562 301.433594 307.851562 302.039062 C 307.851562 303.089844 305.386719 304.910156 301.457031 304.910156 C 296.203125 304.910156 292.488281 301.757812 292.488281 297.070312 L 292.488281 292.824219 C 292.488281 288.703125 296.082031 285.179688 300.53125 285.179688 C 304.664062 285.1875 308.300781 288.304688 308.300781 292.628906 Z M 303.328125 293.714844 C 304.742188 293.714844 305.113281 293.476562 305.113281 292.417969 C 305.113281 290.035156 303.171875 287.855469 300.503906 287.855469 C 297.953125 287.855469 295.851562 289.796875 295.851562 292.257812 L 295.851562 293.714844 Z M 303.328125 293.714844 " fill-opacity="1" fill-rule="nonzero"/><path fill="#1c1f2a" d="M 320.511719 288.214844 C 317.921875 288.214844 315.371094 290.476562 315.371094 294.15625 L 315.371094 303.375 C 315.371094 303.984375 314.605469 304.582031 313.675781 304.582031 C 312.707031 304.582031 312.015625 303.972656 312.015625 303.375 L 312.015625 286.589844 C 312.015625 285.902344 312.707031 285.417969 313.675781 285.417969 C 314.523438 285.417969 315.210938 285.902344 315.210938 286.589844 L 315.210938 288.488281 C 316.105469 286.828125 318.003906 285.171875 320.511719 285.171875 L 321.886719 285.171875 C 322.574219 285.171875 323.183594 285.894531 323.183594 286.707031 C 323.183594 287.519531 322.574219 288.207031 321.886719 288.207031 L 320.511719 288.207031 Z M 320.511719 288.214844 " fill-opacity="1" fill-rule="nonzero"/><path fill="#1c1f2a" d="M 340.570312 292.949219 L 340.570312 297.070312 C 340.570312 301.15625 336.851562 304.910156 332.5625 304.910156 C 328.269531 304.910156 324.597656 301.191406 324.597656 297.070312 L 324.597656 292.949219 C 324.597656 288.824219 328.191406 285.1875 332.5625 285.1875 C 336.84375 285.1875 340.570312 288.703125 340.570312 292.949219 Z M 337.214844 292.949219 C 337.214844 290.5625 335.148438 288.214844 332.5625 288.214844 C 329.972656 288.214844 327.953125 290.554688 327.953125 292.949219 L 327.953125 297.070312 C 327.953125 299.535156 330.019531 301.882812 332.5625 301.882812 C 335.113281 301.882812 337.214844 299.535156 337.214844 297.070312 Z M 337.214844 292.949219 " fill-opacity="1" fill-rule="nonzero"/><path fill="#1c1f2a" d="M 367.777344 292.628906 C 367.777344 295.859375 365.996094 295.984375 364.175781 295.984375 L 355.320312 295.984375 L 355.320312 297.195312 C 355.320312 300.1875 357.707031 302.085938 361.058594 302.085938 C 364.089844 302.085938 364.945312 300.503906 365.953125 300.503906 C 366.761719 300.503906 367.328125 301.433594 367.328125 302.039062 C 367.328125 303.089844 364.867188 304.910156 360.9375 304.910156 C 355.683594 304.910156 351.964844 301.757812 351.964844 297.070312 L 351.964844 292.824219 C 351.964844 288.703125 355.558594 285.179688 360.007812 285.179688 C 364.140625 285.1875 367.777344 288.304688 367.777344 292.628906 Z M 362.808594 293.714844 C 364.222656 293.714844 364.589844 293.476562 364.589844 292.417969 C 364.589844 290.035156 362.648438 287.855469 359.984375 287.855469 C 357.429688 287.855469 355.332031 289.796875 355.332031 292.257812 L 355.332031 293.714844 Z M 362.808594 293.714844 " fill-opacity="1" fill-rule="nonzero"/><path fill="#1c1f2a" d="M 374.859375 303.382812 C 374.859375 303.992188 374.046875 304.59375 373.164062 304.59375 C 372.191406 304.59375 371.503906 303.984375 371.503906 303.382812 L 371.503906 286.601562 C 371.503906 285.910156 372.191406 285.425781 373.164062 285.425781 C 373.976562 285.425781 374.699219 285.910156 374.699219 286.601562 L 374.699219 288.261719 C 375.511719 286.679688 377.410156 285.1875 380.121094 285.1875 C 383.960938 285.1875 387.238281 288.703125 387.238281 292.949219 L 387.238281 303.382812 C 387.238281 304.195312 386.390625 304.59375 385.542969 304.59375 C 384.730469 304.59375 383.882812 304.1875 383.882812 303.382812 L 383.882812 292.949219 C 383.882812 290.5625 381.78125 288.214844 379.273438 288.214844 C 377.09375 288.214844 374.867188 289.992188 374.867188 292.949219 L 374.867188 303.382812 Z M 374.859375 303.382812 " fill-opacity="1" fill-rule="nonzero"/><path fill="#1c1f2a" d="M 411.816406 292.867188 C 411.816406 290.121094 409.875 288.214844 407.613281 288.214844 C 405.46875 288.214844 403.289062 289.910156 403.289062 292.949219 L 403.289062 303.382812 C 403.289062 303.992188 402.519531 304.59375 401.59375 304.59375 C 400.621094 304.59375 399.933594 303.984375 399.933594 303.382812 L 399.933594 286.601562 C 399.933594 285.910156 400.621094 285.425781 401.59375 285.425781 C 402.441406 285.425781 403.128906 285.910156 403.128906 286.601562 L 403.128906 288.261719 C 404.019531 286.679688 405.839844 285.1875 408.503906 285.1875 C 411.058594 285.1875 413.113281 286.847656 414.042969 289.230469 C 415.453125 286.484375 417.847656 285.1875 420.1875 285.1875 C 423.742188 285.1875 427.097656 288.011719 427.097656 292.949219 L 427.097656 303.382812 C 427.097656 303.992188 426.332031 304.59375 425.402344 304.59375 C 424.511719 304.59375 423.742188 303.984375 423.742188 303.382812 L 423.742188 292.949219 C 423.742188 289.832031 421.5625 288.214844 419.496094 288.214844 C 417.351562 288.214844 415.171875 289.992188 415.171875 292.824219 L 415.171875 303.417969 C 415.171875 304.230469 414.324219 304.59375 413.476562 304.59375 C 412.707031 304.59375 411.816406 304.230469 411.816406 303.417969 Z M 411.816406 292.867188 " fill-opacity="1" fill-rule="nonzero"/><path fill="#1c1f2a" d="M 446.953125 292.949219 L 446.953125 297.070312 C 446.953125 301.15625 443.238281 304.910156 438.945312 304.910156 C 434.65625 304.910156 430.984375 301.191406 430.984375 297.070312 L 430.984375 292.949219 C 430.984375 288.824219 434.578125 285.1875 438.945312 285.1875 C 443.238281 285.1875 446.953125 288.703125 446.953125 292.949219 Z M 443.597656 292.949219 C 443.597656 290.5625 441.535156 288.214844 438.945312 288.214844 C 436.359375 288.214844 434.339844 290.554688 434.339844 292.949219 L 434.339844 297.070312 C 434.339844 299.535156 436.402344 301.882812 438.945312 301.882812 C 441.5 301.882812 443.597656 299.535156 443.597656 297.070312 Z M 443.597656 292.949219 " fill-opacity="1" fill-rule="nonzero"/><path fill="#1c1f2a" d="M 449.265625 287.457031 C 449.222656 287.332031 449.109375 287.015625 449.109375 286.804688 C 449.109375 285.992188 450.363281 285.347656 451.253906 285.347656 C 451.738281 285.347656 452.179688 285.550781 452.347656 285.992188 L 457.488281 299.738281 L 462.535156 286.148438 C 462.738281 285.664062 463.023438 285.339844 463.632812 285.339844 C 464.398438 285.339844 465.8125 285.984375 465.8125 286.792969 C 465.8125 287.042969 465.734375 287.28125 465.652344 287.449219 L 459.023438 304.222656 C 458.820312 304.664062 458.132812 304.953125 457.488281 304.953125 C 456.761719 304.953125 456.109375 304.707031 455.90625 304.222656 Z M 449.265625 287.457031 " fill-opacity="1" fill-rule="nonzero"/><path fill="#1c1f2a" d="M 472.398438 278.230469 C 472.398438 279.246094 471.472656 280.171875 470.332031 280.171875 C 469.160156 280.171875 468.230469 279.246094 468.230469 278.230469 C 468.230469 277.226562 469.160156 276.332031 470.332031 276.332031 C 471.460938 276.332031 472.398438 277.226562 472.398438 278.230469 Z M 472.035156 286.601562 L 472.035156 303.382812 C 472.035156 303.992188 471.269531 304.59375 470.339844 304.59375 C 469.414062 304.59375 468.683594 303.984375 468.683594 303.382812 L 468.683594 286.601562 C 468.683594 285.910156 469.40625 285.425781 470.339844 285.425781 C 471.269531 285.425781 472.035156 285.910156 472.035156 286.601562 Z M 472.035156 286.601562 " fill-opacity="1" fill-rule="nonzero"/><path fill="#1c1f2a" d="M 488.6875 292.867188 C 488.6875 290.121094 486.746094 288.214844 484.484375 288.214844 C 482.339844 288.214844 480.160156 289.910156 480.160156 292.949219 L 480.160156 303.382812 C 480.160156 303.992188 479.390625 304.59375 478.464844 304.59375 C 477.492188 304.59375 476.804688 303.984375 476.804688 303.382812 L 476.804688 286.601562 C 476.804688 285.910156 477.492188 285.425781 478.464844 285.425781 C 479.3125 285.425781 480 285.910156 480 286.601562 L 480 288.261719 C 480.890625 286.679688 482.710938 285.1875 485.375 285.1875 C 487.929688 285.1875 489.984375 286.847656 490.914062 289.230469 C 492.324219 286.484375 494.71875 285.1875 497.058594 285.1875 C 500.613281 285.1875 503.96875 288.011719 503.96875 292.949219 L 503.96875 303.382812 C 503.96875 303.992188 503.203125 304.59375 502.273438 304.59375 C 501.382812 304.59375 500.613281 303.984375 500.613281 303.382812 L 500.613281 292.949219 C 500.613281 289.832031 498.433594 288.214844 496.367188 288.214844 C 494.222656 288.214844 492.042969 289.992188 492.042969 292.824219 L 492.042969 303.417969 C 492.042969 304.230469 491.195312 304.59375 490.347656 304.59375 C 489.578125 304.59375 488.6875 304.230469 488.6875 303.417969 Z M 488.6875 292.867188 " fill-opacity="1" fill-rule="nonzero"/><path fill="#1c1f2a" d="M 512.304688 278.230469 C 512.304688 279.246094 511.378906 280.171875 510.238281 280.171875 C 509.0625 280.171875 508.136719 279.246094 508.136719 278.230469 C 508.136719 277.226562 509.0625 276.332031 510.238281 276.332031 C 511.378906 276.332031 512.304688 277.226562 512.304688 278.230469 Z M 511.941406 286.601562 L 511.941406 303.382812 C 511.941406 303.992188 511.175781 304.59375 510.246094 304.59375 C 509.320312 304.59375 508.585938 303.984375 508.585938 303.382812 L 508.585938 286.601562 C 508.585938 285.910156 509.3125 285.425781 510.246094 285.425781 C 511.175781 285.425781 511.941406 285.910156 511.941406 286.601562 Z M 511.941406 286.601562 " fill-opacity="1" fill-rule="nonzero"/><path fill="#1c1f2a" d="M 531.796875 292.628906 C 531.796875 295.859375 530.015625 295.984375 528.195312 295.984375 L 519.339844 295.984375 L 519.339844 297.195312 C 519.339844 300.1875 521.722656 302.085938 525.078125 302.085938 C 528.109375 302.085938 528.964844 300.503906 529.96875 300.503906 C 530.78125 300.503906 531.347656 301.433594 531.347656 302.039062 C 531.347656 303.089844 528.882812 304.910156 524.957031 304.910156 C 519.703125 304.910156 515.984375 301.757812 515.984375 297.070312 L 515.984375 292.824219 C 515.984375 288.703125 519.578125 285.179688 524.027344 285.179688 C 528.160156 285.1875 531.796875 288.304688 531.796875 292.628906 Z M 526.828125 293.714844 C 528.238281 293.714844 528.609375 293.476562 528.609375 292.417969 C 528.609375 290.035156 526.667969 287.855469 524.003906 287.855469 C 521.449219 287.855469 519.347656 289.796875 519.347656 292.257812 L 519.347656 293.714844 Z M 526.828125 293.714844 " fill-opacity="1" fill-rule="nonzero"/><path fill="#1c1f2a" d="M 538.878906 303.382812 C 538.878906 303.992188 538.066406 304.59375 537.183594 304.59375 C 536.210938 304.59375 535.523438 303.984375 535.523438 303.382812 L 535.523438 286.601562 C 535.523438 285.910156 536.210938 285.425781 537.183594 285.425781 C 537.996094 285.425781 538.71875 285.910156 538.71875 286.601562 L 538.71875 288.261719 C 539.53125 286.679688 541.429688 285.1875 544.140625 285.1875 C 547.980469 285.1875 551.257812 288.703125 551.257812 292.949219 L 551.257812 303.382812 C 551.257812 304.195312 550.410156 304.59375 549.5625 304.59375 C 548.75 304.59375 547.902344 304.1875 547.902344 303.382812 L 547.902344 292.949219 C 547.902344 290.5625 545.800781 288.214844 543.292969 288.214844 C 541.113281 288.214844 538.886719 289.992188 538.886719 292.949219 L 538.886719 303.382812 Z M 538.878906 303.382812 " fill-opacity="1" fill-rule="nonzero"/><path fill="#1c1f2a" d="M 559.132812 298.492188 C 559.132812 300.796875 559.980469 301.644531 562.488281 301.644531 L 563.738281 301.644531 C 564.667969 301.644531 565.195312 302.332031 565.195312 303.101562 C 565.195312 303.867188 564.667969 304.59375 563.738281 304.59375 L 562.488281 304.59375 C 558.117188 304.59375 555.777344 302.730469 555.777344 298.492188 L 555.777344 277.667969 C 555.777344 276.976562 556.667969 276.492188 557.4375 276.492188 C 558.285156 276.492188 559.132812 276.976562 559.132812 277.667969 L 559.132812 285.425781 L 564.226562 285.425781 C 564.835938 285.425781 565.230469 286.070312 565.230469 286.757812 C 565.230469 287.449219 564.824219 288.058594 564.226562 288.058594 L 559.132812 288.058594 Z M 559.132812 298.492188 " fill-opacity="1" fill-rule="nonzero"/><path fill="#1c1f2a" d="M 583.3125 292.949219 L 583.3125 297.070312 C 583.3125 301.15625 579.597656 304.910156 575.304688 304.910156 C 571.015625 304.910156 567.34375 301.191406 567.34375 297.070312 L 567.34375 292.949219 C 567.34375 288.824219 570.933594 285.1875 575.304688 285.1875 C 579.597656 285.1875 583.3125 288.703125 583.3125 292.949219 Z M 579.957031 292.949219 C 579.957031 290.5625 577.890625 288.214844 575.304688 288.214844 C 572.71875 288.214844 570.695312 290.554688 570.695312 292.949219 L 570.695312 297.070312 C 570.695312 299.535156 572.761719 301.882812 575.304688 301.882812 C 577.847656 301.882812 579.957031 299.535156 579.957031 297.070312 Z M 579.957031 292.949219 " fill-opacity="1" fill-rule="nonzero"/><path fill="#2e2e3a" d="M 500.84375 144.308594 C 500.925781 144.292969 501.003906 144.265625 501.082031 144.238281 C 500.996094 144.265625 500.925781 144.292969 500.84375 144.308594 Z M 500.84375 144.308594 " fill-opacity="1" fill-rule="nonzero"/><path fill="#2a2c39" d="M 480.652344 153.074219 C 480.589844 153.128906 480.53125 153.171875 480.46875 153.226562 C 478.492188 154.945312 476.425781 157.003906 474.296875 159.308594 C 459.183594 175.703125 440.855469 204.941406 427.144531 218.386719 C 426.949219 218.5625 426.738281 218.695312 426.550781 218.878906 C 420.699219 224.734375 413.898438 228.335938 405.714844 228.335938 C 397.523438 228.335938 390.089844 225.050781 384.386719 219.207031 C 378.53125 213.433594 375.882812 206.742188 375.882812 198.546875 C 375.882812 190.355469 377.382812 183.214844 383.125 176.882812 C 388.570312 170.863281 396.128906 166.484375 404.320312 166.484375 C 411.171875 166.484375 418.003906 167.261719 423.488281 170.96875 C 424.210938 171.457031 425.140625 172.152344 425.808594 172.742188 C 429.332031 175.59375 432.421875 178.421875 434.390625 182.011719 L 456.851562 165.167969 C 456.851562 165.167969 453.691406 160.90625 450.511719 157.234375 C 449.894531 156.589844 449.277344 155.953125 448.625 155.316406 C 447.917969 154.601562 447.203125 153.914062 446.476562 153.242188 C 446.433594 153.199219 446.390625 153.164062 446.355469 153.128906 C 437.632812 145.085938 427.621094 140.222656 416.335938 138.4375 C 412.839844 137.925781 409.210938 137.6875 405.425781 137.679688 C 397.707031 137.785156 390.539062 139.1875 383.890625 141.917969 C 383.617188 142.03125 383.335938 142.144531 383.0625 142.269531 C 382.734375 142.410156 382.417969 142.5625 382.089844 142.710938 C 376.378906 145.367188 371.070312 149.023438 366.128906 153.523438 C 365.5 154.109375 364.882812 154.699219 364.273438 155.316406 C 352.59375 166.875 346.617188 180.847656 346.617188 197.367188 C 346.617188 213.75 352.585938 227.847656 364.273438 239.527344 C 371.972656 247.21875 380.015625 252.410156 389.054688 255.101562 C 393.207031 256.257812 397.539062 256.964844 402.078125 257.195312 C 408.171875 257.414062 414.738281 256.726562 421.933594 255.074219 C 425.773438 254.007812 429.464844 252.566406 432.988281 250.714844 L 432.996094 250.722656 C 432.996094 250.722656 439.441406 248.4375 447.300781 240.171875 C 449.160156 238.214844 452.464844 234.109375 456.558594 228.863281 C 458.988281 225.757812 461.707031 222.242188 464.566406 218.535156 C 462.167969 212.039062 460.851562 205.011719 460.851562 197.683594 C 460.84375 179.964844 468.503906 164.082031 480.652344 153.074219 Z M 480.652344 153.074219 " fill-opacity="1" fill-rule="nonzero"/><path fill="#ffffff" d="M 503.847656 139.949219 C 503.800781 139.964844 503.765625 139.984375 503.722656 139.992188 C 503.757812 139.984375 503.785156 139.972656 503.820312 139.964844 Z M 503.847656 139.949219 " fill-opacity="1" fill-rule="nonzero"/><path fill="#83bf00" d="M 563.34375 155.300781 C 551.574219 143.601562 537.378906 137.730469 520.753906 137.695312 C 520.304688 137.695312 519.871094 137.75 519.421875 137.75 L 519.410156 137.695312 C 519.410156 137.695312 515.484375 137.449219 509.375 138.675781 C 508.023438 138.914062 506.679688 139.195312 505.363281 139.523438 C 505.277344 139.550781 505.1875 139.578125 505.101562 139.59375 C 504.660156 139.710938 504.234375 139.839844 503.800781 139.964844 C 503.765625 139.972656 503.742188 139.984375 503.707031 139.992188 C 503.476562 140.0625 503.238281 140.125 503.007812 140.195312 C 494.601562 142.835938 487.019531 147.292969 480.644531 153.074219 C 468.496094 164.09375 460.832031 179.964844 460.832031 197.65625 C 460.832031 204.992188 462.148438 212.011719 464.550781 218.507812 C 464.550781 218.519531 464.550781 218.519531 464.558594 218.527344 C 473.660156 206.660156 483.390625 192.546875 490.824219 183.53125 C 495.40625 177.96875 495.40625 177.96875 498.203125 175.117188 C 504.554688 168.902344 512.074219 165.789062 520.753906 165.789062 C 529.5625 165.789062 537.085938 168.902344 543.300781 175.117188 C 549.515625 181.34375 552.632812 188.855469 552.632812 197.664062 C 552.632812 206.34375 549.515625 213.867188 543.300781 220.214844 C 537.085938 226.4375 529.5625 229.542969 520.753906 229.542969 C 512.074219 229.542969 504.554688 226.4375 498.203125 220.214844 C 496.359375 218.289062 494.816406 216.242188 493.527344 214.09375 C 493.527344 214.09375 490.628906 208.472656 490.054688 205.847656 L 469.492188 228.765625 C 480.042969 246.210938 499.183594 257.863281 521.054688 257.863281 C 548.75 257.863281 572.058594 239.167969 579.085938 213.707031 C 580.347656 208.761719 580.992188 203.5625 580.992188 198.097656 C 581 181.414062 575.113281 167.148438 563.34375 155.300781 Z M 563.34375 155.300781 " fill-opacity="1" fill-rule="nonzero"/><g clip-path="url(#b5acaa1505)"><path stroke-linecap="butt" transform="matrix(0.882868, 0, 0, 0.882812, -278.471584, -129.221904)" fill="none" stroke-linejoin="miter" d="M 695.158781 344.211555 C 686.269957 328.538988 669.598435 317.999165 650.497862 317.999165 C 635.401462 317.999165 621.809393 324.600935 612.38078 335.109785 C 604.071566 344.388546 599.001087 356.720405 599.001087 370.25138 C 599.001087 383.609787 603.938831 395.800054 612.071065 405.038992 C 621.508527 415.760232 635.228906 422.49917 650.497862 422.49917 C 669.762142 422.49917 686.548701 411.77793 695.388855 395.888549 " stroke="#2a2c39" stroke-width="31" stroke-opacity="1" stroke-miterlimit="10"/></g><g clip-path="url(#3b2ede1a9f)"><path fill="#ffffff" d="M 92.367188 313.9375 L 500.367188 313.9375 L 500.367188 721.9375 L 92.367188 721.9375 Z M 92.367188 313.9375 " fill-opacity="1" fill-rule="nonzero"/></g><path stroke-linecap="butt" transform="matrix(15.11111, 0, 0, 15.11111, 92.367709, 313.937754)" fill-opacity="1" fill="#ffffff" fill-rule="nonzero" stroke-linejoin="miter" d="M 1.000109 1.500069 L 8.000081 1.500069 M 8.999966 1.500069 L 10.00011 1.500069 M 10.999995 1.500069 L 11.99988 1.500069 M 13.000024 1.500069 L 15.999938 1.500069 M 19.000111 1.500069 L 26.000082 1.500069 M 1.000109 2.499955 L 1.999994 2.499955 M 6.999937 2.499955 L 8.000081 2.499955 M 8.999966 2.499955 L 13.000024 2.499955 M 15.000053 2.499955 L 15.999938 2.499955 M 19.000111 2.499955 L 19.999996 2.499955 M 24.999939 2.499955 L 26.000082 2.499955 M 1.000109 3.500098 L 1.999994 3.500098 M 2.99988 3.500098 L 6.000052 3.500098 M 6.999937 3.500098 L 8.000081 3.500098 M 8.999966 3.500098 L 11.99988 3.500098 M 13.000024 3.500098 L 15.999938 3.500098 M 19.000111 3.500098 L 19.999996 3.500098 M 20.999881 3.500098 L 24.000054 3.500098 M 24.999939 3.500098 L 26.000082 3.500098 M 1.000109 4.499984 L 1.999994 4.499984 M 2.99988 4.499984 L 6.000052 4.499984 M 6.999937 4.499984 L 8.000081 4.499984 M 10.00011 4.499984 L 10.999995 4.499984 M 11.99988 4.499984 L 13.000024 4.499984 M 13.999909 4.499984 L 15.000053 4.499984 M 15.999938 4.499984 L 17.999967 4.499984 M 19.000111 4.499984 L 19.999996 4.499984 M 20.999881 4.499984 L 24.000054 4.499984 M 24.999939 4.499984 L 26.000082 4.499984 M 1.000109 5.500127 L 1.999994 5.500127 M 2.99988 5.500127 L 6.000052 5.500127 M 6.999937 5.500127 L 8.000081 5.500127 M 8.999966 5.500127 L 10.999995 5.500127 M 11.99988 5.500127 L 15.999938 5.500127 M 19.000111 5.500127 L 19.999996 5.500127 M 20.999881 5.500127 L 24.000054 5.500127 M 24.999939 5.500127 L 26.000082 5.500127 M 1.000109 6.500012 L 1.999994 6.500012 M 6.999937 6.500012 L 8.000081 6.500012 M 11.99988 6.500012 L 13.000024 6.500012 M 13.999909 6.500012 L 15.999938 6.500012 M 17.000082 6.500012 L 17.999967 6.500012 M 19.000111 6.500012 L 19.999996 6.500012 M 24.999939 6.500012 L 26.000082 6.500012 M 1.000109 7.499898 L 8.000081 7.499898 M 8.999966 7.499898 L 10.00011 7.499898 M 10.999995 7.499898 L 11.99988 7.499898 M 13.000024 7.499898 L 13.999909 7.499898 M 15.000053 7.499898 L 15.999938 7.499898 M 17.000082 7.499898 L 17.999967 7.499898 M 19.000111 7.499898 L 26.000082 7.499898 M 13.000024 8.500041 L 15.000053 8.500041 M 1.000109 9.499926 L 1.999994 9.499926 M 4.000023 9.499926 L 10.00011 9.499926 M 11.99988 9.499926 L 13.999909 9.499926 M 15.000053 9.499926 L 17.000082 9.499926 M 17.999967 9.499926 L 19.000111 9.499926 M 20.999881 9.499926 L 22.000025 9.499926 M 22.99991 9.499926 L 26.000082 9.499926 M 2.99988 10.50007 L 4.999908 10.50007 M 6.000052 10.50007 L 6.999937 10.50007 M 8.999966 10.50007 L 10.00011 10.50007 M 11.99988 10.50007 L 13.000024 10.50007 M 13.999909 10.50007 L 17.000082 10.50007 M 19.999996 10.50007 L 24.999939 10.50007 M 1.999994 11.499955 L 2.99988 11.499955 M 6.999937 11.499955 L 8.000081 11.499955 M 10.999995 11.499955 L 11.99988 11.499955 M 15.999938 11.499955 L 17.000082 11.499955 M 17.999967 11.499955 L 19.999996 11.499955 M 22.000025 11.499955 L 22.99991 11.499955 M 24.999939 11.499955 L 26.000082 11.499955 M 1.999994 12.500099 L 4.999908 12.500099 M 6.000052 12.500099 L 6.999937 12.500099 M 10.00011 12.500099 L 13.000024 12.500099 M 15.000053 12.500099 L 15.999938 12.500099 M 17.000082 12.500099 L 17.999967 12.500099 M 19.000111 12.500099 L 19.999996 12.500099 M 20.999881 12.500099 L 26.000082 12.500099 M 1.999994 13.499984 L 2.99988 13.499984 M 6.999937 13.499984 L 8.000081 13.499984 M 10.00011 13.499984 L 10.999995 13.499984 M 11.99988 13.499984 L 13.999909 13.499984 M 15.000053 13.499984 L 17.000082 13.499984 M 19.000111 13.499984 L 19.999996 13.499984 M 24.999939 13.499984 L 26.000082 13.499984 M 1.000109 14.500128 L 1.999994 14.500128 M 2.99988 14.500128 L 4.999908 14.500128 M 8.000081 14.500128 L 10.00011 14.500128 M 15.000053 14.500128 L 17.999967 14.500128 M 20.999881 14.500128 L 22.000025 14.500128 M 24.000054 14.500128 L 24.999939 14.500128 M 1.000109 15.500013 L 2.99988 15.500013 M 4.000023 15.500013 L 4.999908 15.500013 M 6.000052 15.500013 L 8.000081 15.500013 M 8.999966 15.500013 L 10.999995 15.500013 M 11.99988 15.500013 L 13.999909 15.500013 M 15.000053 15.500013 L 17.000082 15.500013 M 19.000111 15.500013 L 19.999996 15.500013 M 20.999881 15.500013 L 26.000082 15.500013 M 1.000109 16.499898 L 1.999994 16.499898 M 4.000023 16.499898 L 4.999908 16.499898 M 6.000052 16.499898 L 6.999937 16.499898 M 8.000081 16.499898 L 10.00011 16.499898 M 10.999995 16.499898 L 13.000024 16.499898 M 17.000082 16.499898 L 19.000111 16.499898 M 19.999996 16.499898 L 20.999881 16.499898 M 22.000025 16.499898 L 24.000054 16.499898 M 24.999939 16.499898 L 26.000082 16.499898 M 1.000109 17.500042 L 1.999994 17.500042 M 4.999908 17.500042 L 8.000081 17.500042 M 8.999966 17.500042 L 10.00011 17.500042 M 10.999995 17.500042 L 11.99988 17.500042 M 15.000053 17.500042 L 22.000025 17.500042 M 22.99991 17.500042 L 24.999939 17.500042 M 8.999966 18.499927 L 10.00011 18.499927 M 10.999995 18.499927 L 15.000053 18.499927 M 17.000082 18.499927 L 17.999967 18.499927 M 20.999881 18.499927 L 22.000025 18.499927 M 22.99991 18.499927 L 24.999939 18.499927 M 1.000109 19.500071 L 8.000081 19.500071 M 8.999966 19.500071 L 10.00011 19.500071 M 10.999995 19.500071 L 13.000024 19.500071 M 17.000082 19.500071 L 17.999967 19.500071 M 19.000111 19.500071 L 19.999996 19.500071 M 20.999881 19.500071 L 22.000025 19.500071 M 24.999939 19.500071 L 26.000082 19.500071 M 1.000109 20.499956 L 1.999994 20.499956 M 6.999937 20.499956 L 8.000081 20.499956 M 8.999966 20.499956 L 10.00011 20.499956 M 13.000024 20.499956 L 13.999909 20.499956 M 15.000053 20.499956 L 17.999967 20.499956 M 20.999881 20.499956 L 22.000025 20.499956 M 24.000054 20.499956 L 26.000082 20.499956 M 1.000109 21.5001 L 1.999994 21.5001 M 2.99988 21.5001 L 6.000052 21.5001 M 6.999937 21.5001 L 8.000081 21.5001 M 8.999966 21.5001 L 10.00011 21.5001 M 10.999995 21.5001 L 11.99988 21.5001 M 13.000024 21.5001 L 22.000025 21.5001 M 24.000054 21.5001 L 26.000082 21.5001 M 1.000109 22.499985 L 1.999994 22.499985 M 2.99988 22.499985 L 6.000052 22.499985 M 6.999937 22.499985 L 8.000081 22.499985 M 8.999966 22.499985 L 11.99988 22.499985 M 15.000053 22.499985 L 17.000082 22.499985 M 17.999967 22.499985 L 19.999996 22.499985 M 24.000054 22.499985 L 26.000082 22.499985 M 1.000109 23.500129 L 1.999994 23.500129 M 2.99988 23.500129 L 6.000052 23.500129 M 6.999937 23.500129 L 8.000081 23.500129 M 13.000024 23.500129 L 13.999909 23.500129 M 15.000053 23.500129 L 15.999938 23.500129 M 17.000082 23.500129 L 19.000111 23.500129 M 20.999881 23.500129 L 26.000082 23.500129 M 1.000109 24.500014 L 1.999994 24.500014 M 6.999937 24.500014 L 8.000081 24.500014 M 10.00011 24.500014 L 10.999995 24.500014 M 15.000053 24.500014 L 15.999938 24.500014 M 17.999967 24.500014 L 22.000025 24.500014 M 22.99991 24.500014 L 26.000082 24.500014 M 1.000109 25.499899 L 8.000081 25.499899 M 8.999966 25.499899 L 10.999995 25.499899 M 13.999909 25.499899 L 15.999938 25.499899 M 17.000082 25.499899 L 17.999967 25.499899 M 22.000025 25.499899 L 22.99991 25.499899 M 24.999939 25.499899 L 26.000082 25.499899 " stroke="#2a2c39" stroke-width="1" stroke-opacity="1" stroke-miterlimit="4"/></svg>